<?xml version="1.0" standalone="no"?>
<!DOCTYPE svg PUBLIC "-//W3C//DTD SVG 20010904//EN"
 "http://www.w3.org/TR/2001/REC-SVG-20010904/DTD/svg10.dtd">
<svg version="1.0" xmlns="http://www.w3.org/2000/svg"
 width="278.000000pt" height="75.000000pt" viewBox="0 0 278.000000 75.000000"
 preserveAspectRatio="xMidYMid meet">

<g transform="translate(0.000000,75.000000) scale(0.100000,-0.100000)"
fill="#00958e" stroke="none">
<path d="M552 738 c-16 -16 -15 -60 3 -84 13 -17 13 -16 3 12 -23 63 21 87 67
38 14 -15 25 -22 25 -17 0 18 -48 63 -68 63 -10 0 -23 -5 -30 -12z"/>
<path d="M860 630 l0 -60 80 0 80 0 0 -195 0 -195 80 0 80 0 0 195 0 195 75 0
75 0 0 -195 0 -195 70 0 70 0 0 113 c0 132 11 160 63 155 46 -4 57 -34 57
-160 l0 -108 65 0 65 0 0 50 c0 57 8 62 33 21 9 -16 34 -40 55 -53 31 -19 50
-23 122 -23 100 0 140 18 180 79 l25 39 3 -57 3 -56 69 0 70 0 0 113 c0 124
12 157 55 157 47 0 55 -21 55 -151 l0 -119 70 0 70 0 0 118 c0 103 3 121 18
135 24 22 55 21 75 -1 14 -15 17 -41 17 -135 l0 -117 70 0 70 0 -1 123 c-1
204 -27 253 -134 251 -42 0 -60 -6 -89 -28 l-37 -28 -25 26 c-38 37 -101 44
-159 16 -25 -12 -45 -26 -45 -31 0 -5 -4 -9 -10 -9 -5 0 -10 11 -10 25 0 24
-2 25 -65 25 l-64 0 -3 -57 -3 -58 -22 37 c-58 98 -241 115 -334 31 -21 -19
-39 -42 -39 -49 0 -8 -4 -14 -10 -14 -5 0 -10 7 -10 15 0 33 -32 77 -67 92
-48 20 -114 10 -153 -23 l-30 -26 0 96 0 96 -305 0 -305 0 0 -60z m1122 -188
c39 -33 30 -149 -12 -172 -60 -32 -110 11 -110 94 0 91 63 131 122 78z"/>
<path d="M1585 660 c-4 -12 -5 -24 -2 -27 3 -2 8 5 12 17 4 12 5 24 2 27 -3 2
-8 -5 -12 -17z"/>
<path d="M1851 653 c0 -16 3 -22 6 -15 2 6 9 12 14 12 6 0 7 -6 3 -12 -5 -10
-4 -10 6 -1 10 9 10 15 -3 27 -22 22 -27 20 -26 -11z"/>
<path d="M1928 660 c-7 -24 -3 -38 8 -28 3 4 4 17 2 30 l-3 23 -7 -25z"/>
<path d="M2098 655 c-3 -14 -2 -25 2 -25 4 0 10 11 12 25 3 14 2 25 -2 25 -4
0 -10 -11 -12 -25z"/>
<path d="M2260 660 c0 -11 -5 -20 -11 -20 -5 0 -7 5 -3 12 4 7 3 8 -4 4 -19
-11 -14 -26 8 -26 15 0 20 7 20 25 0 14 -2 25 -5 25 -3 0 -5 -9 -5 -20z"/>
<path d="M2540 653 c0 -22 2 -25 10 -13 13 20 13 40 0 40 -5 0 -10 -12 -10
-27z"/>
<path d="M2607 673 c-4 -3 -7 -11 -7 -17 0 -6 5 -4 10 4 8 12 10 10 11 -10 0
-23 1 -23 8 -5 12 28 -3 47 -22 28z"/>
<path d="M2686 665 c4 -8 8 -15 10 -15 2 0 4 7 4 15 0 8 -4 15 -10 15 -5 0 -7
-7 -4 -15z"/>
<path d="M2748 655 c-3 -14 -1 -25 3 -25 5 0 9 11 9 25 0 14 -2 25 -4 25 -2 0
-6 -11 -8 -25z"/>
<path d="M1727 663 c-10 -9 -9 -33 1 -33 4 0 8 9 9 20 2 21 0 24 -10 13z"/>
<path d="M1660 651 c0 -5 5 -13 10 -16 6 -3 10 -2 10 4 0 5 -4 13 -10 16 -5 3
-10 2 -10 -4z"/>
<path d="M1800 649 c0 -5 -4 -7 -10 -4 -5 3 -10 1 -10 -4 0 -6 7 -11 15 -11 8
0 15 7 15 15 0 8 -2 15 -5 15 -3 0 -5 -5 -5 -11z"/>
<path d="M1981 644 c0 -11 3 -14 6 -6 3 7 2 16 -1 19 -3 4 -6 -2 -5 -13z"/>
<path d="M2040 645 c7 -9 15 -13 17 -11 7 7 -7 26 -19 26 -6 0 -6 -6 2 -15z"/>
<path d="M2121 644 c0 -11 3 -14 6 -6 3 7 2 16 -1 19 -3 4 -6 -2 -5 -13z"/>
<path d="M2175 649 c-11 -16 -1 -19 13 -3 7 8 8 14 3 14 -5 0 -13 -5 -16 -11z"/>
<path d="M2361 644 c0 -11 3 -14 6 -6 3 7 2 16 -1 19 -3 4 -6 -2 -5 -13z"/>
<path d="M2411 643 c0 -13 2 -14 6 -4 4 10 7 10 13 1 5 -8 9 -7 13 4 5 11 1
16 -13 16 -13 0 -20 -6 -19 -17z"/>
<path d="M605 550 c3 -19 8 -76 12 -126 5 -81 3 -97 -17 -140 -19 -39 -24 -70
-26 -154 l-3 -105 10 90 c6 49 22 123 36 164 21 63 25 87 21 155 -3 45 -12 97
-21 116 l-17 35 5 -35z"/>
<path d="M477 521 c-28 -19 -54 -46 -67 -70 -21 -43 -27 -91 -10 -91 6 0 10
15 10 33 0 43 31 90 80 123 35 24 47 34 37 34 -2 0 -24 -13 -50 -29z"/>
<path d="M656 527 c17 -47 180 -118 198 -88 4 6 -10 13 -31 16 -68 12 -104 27
-139 57 -19 17 -32 23 -28 15z"/>
<path d="M121 357 c-8 -10 -7 -19 4 -33 13 -18 14 -18 8 4 -4 18 -1 22 16 22
12 0 32 -5 44 -11 21 -10 21 -9 -2 10 -27 24 -54 27 -70 8z"/>
<path d="M342 330 c-13 -17 -38 -40 -55 -51 -37 -22 -29 -26 11 -5 35 18 75
61 70 76 -2 6 -14 -3 -26 -20z"/>
<path d="M160 218 c-11 -19 -20 -50 -20 -73 l1 -40 20 55 c29 81 32 90 25 90
-3 0 -15 -15 -26 -32z"/>
<path d="M39 201 c-37 -36 -49 -61 -31 -61 5 0 15 15 24 33 9 19 31 41 50 50
22 11 27 17 14 17 -10 0 -36 -17 -57 -39z"/>
<path d="M1476 127 c-11 -8 -16 -19 -12 -26 4 -6 2 -18 -4 -26 -22 -26 -4 -45
40 -43 31 1 40 5 35 15 -3 8 -5 19 -5 24 0 5 -3 8 -7 8 -20 -3 -24 2 -13 17
11 12 11 18 -1 30 -13 12 -18 12 -33 1z m24 -17 c0 -5 -4 -10 -10 -10 -5 0
-10 5 -10 10 0 6 5 10 10 10 6 0 10 -4 10 -10z m-9 -53 c-1 -12 -15 -9 -19 4
-3 6 1 10 8 8 6 -3 11 -8 11 -12z"/>
<path d="M1022 118 c-27 -27 -5 -88 32 -88 25 0 51 22 39 33 -3 4 -12 2 -19
-4 -19 -15 -44 -4 -44 19 0 30 26 48 45 32 17 -14 31 -8 20 9 -9 15 -58 14
-73 -1z"/>
<path d="M1120 86 c0 -50 17 -72 22 -29 4 39 28 42 28 4 0 -17 5 -31 11 -31 6
0 9 16 7 38 -3 32 -6 37 -25 35 -15 -2 -23 3 -23 12 0 8 -4 15 -10 15 -5 0
-10 -20 -10 -44z"/>
<path d="M1270 79 c0 -31 4 -48 10 -44 6 3 10 26 10 51 0 24 -4 44 -10 44 -5
0 -10 -23 -10 -51z"/>
<path d="M1360 115 c0 -8 -6 -12 -13 -9 -19 7 -39 -20 -35 -48 2 -18 10 -24
36 -26 l32 -3 0 50 c0 28 -4 51 -10 51 -5 0 -10 -7 -10 -15z m-2 -47 c-2 -13
-7 -23 -13 -23 -5 0 -11 10 -13 23 -2 15 2 22 13 22 11 0 15 -7 13 -22z"/>
<path d="M1610 80 c0 -27 5 -50 10 -50 6 0 10 9 10 20 0 13 7 20 19 20 11 0
23 5 26 10 4 6 -5 10 -20 10 -33 0 -29 22 6 31 20 6 18 7 -13 8 l-38 1 0 -50z"/>
<path d="M1970 86 c0 -25 5 -48 10 -51 6 -4 10 13 10 44 0 28 -4 51 -10 51 -5
0 -10 -20 -10 -44z"/>
<path d="M2157 117 c-7 -19 4 -33 31 -41 34 -11 27 -30 -9 -22 -28 5 -30 4
-19 -10 20 -23 64 -14 68 14 3 18 -3 25 -28 34 -22 7 -28 14 -21 21 7 7 15 6
26 -3 17 -14 31 -8 20 9 -9 16 -62 14 -68 -2z"/>
<path d="M2495 120 c3 -5 8 -10 11 -10 2 0 4 5 4 10 0 6 -5 10 -11 10 -5 0 -7
-4 -4 -10z"/>
<path d="M1717 103 c-14 -13 -6 -21 16 -16 18 3 18 2 -6 -12 -35 -20 -30 -39
11 -43 29 -3 32 -1 32 25 0 40 -32 68 -53 46z m28 -53 c-3 -5 -10 -10 -16 -10
-5 0 -9 5 -9 10 0 6 7 10 16 10 8 0 12 -4 9 -10z"/>
<path d="M1808 102 c-13 -2 -18 -13 -18 -38 0 -40 17 -46 22 -7 4 39 28 42 28
4 0 -17 5 -31 10 -31 6 0 10 14 10 30 0 17 5 30 10 30 6 0 10 -13 10 -30 0
-16 5 -30 11 -30 6 0 9 16 7 37 -3 35 -5 37 -38 38 -19 1 -43 -1 -52 -3z"/>
<path d="M2020 96 c0 -8 5 -27 11 -43 7 -19 7 -29 0 -31 -16 -5 -13 -22 3 -22
16 0 59 97 46 105 -5 3 -12 -6 -16 -20 -7 -29 -24 -34 -24 -6 0 11 -4 23 -10
26 -5 3 -10 -1 -10 -9z"/>
<path d="M2266 94 c-9 -8 -16 -21 -16 -28 0 -30 51 -49 66 -24 5 8 0 9 -14 6
-12 -4 -25 -2 -28 3 -3 5 6 9 20 9 28 0 34 18 14 38 -16 16 -23 15 -42 -4z
m34 -14 c0 -5 -4 -10 -10 -10 -5 0 -10 5 -10 10 0 6 5 10 10 10 6 0 10 -4 10
-10z"/>
<path d="M2358 103 c-13 -3 -18 -15 -18 -39 0 -19 5 -34 10 -34 6 0 10 11 10
25 0 14 7 28 15 31 8 4 15 10 15 15 0 9 -4 10 -32 2z"/>
<path d="M2449 84 c-11 -29 -11 -29 -20 -6 -4 12 -13 22 -19 22 -13 0 12 -62
27 -67 6 -2 16 12 23 32 14 44 5 60 -11 19z"/>
<path d="M2550 96 c-20 -25 -9 -61 19 -61 13 0 27 7 29 15 4 12 3 13 -10 3
-17 -15 -28 -7 -28 19 0 15 5 18 20 13 24 -7 27 10 4 19 -21 8 -20 8 -34 -8z"/>
<path d="M2636 94 c-9 -8 -16 -21 -16 -28 0 -30 51 -49 66 -24 5 8 0 9 -14 6
-12 -4 -25 -2 -28 3 -3 5 6 9 20 9 28 0 34 18 14 38 -16 16 -23 15 -42 -4z
m34 -14 c0 -5 -4 -10 -10 -10 -5 0 -10 5 -10 10 0 6 5 10 10 10 6 0 10 -4 10
-10z"/>
<path d="M2723 103 c-20 -7 -15 -31 7 -38 11 -3 20 -11 20 -16 0 -6 -10 -7
-22 -4 -18 6 -20 4 -12 -5 14 -14 56 -10 61 7 2 6 -8 19 -24 28 -24 14 -25 16
-5 11 15 -3 22 0 19 7 -4 13 -26 18 -44 10z"/>
<path d="M1220 65 c0 -19 5 -35 10 -35 6 0 10 16 10 35 0 19 -4 35 -10 35 -5
0 -10 -16 -10 -35z"/>
<path d="M1930 65 c0 -19 5 -35 10 -35 6 0 10 16 10 35 0 19 -4 35 -10 35 -5
0 -10 -16 -10 -35z"/>
<path d="M2490 71 c0 -17 5 -33 10 -36 6 -4 10 8 10 29 0 20 -4 36 -10 36 -5
0 -10 -13 -10 -29z"/>
<path d="M165 50 c0 -21 3 -36 8 -33 10 6 9 61 -1 67 -4 2 -8 -13 -7 -34z"/>
</g>
</svg>
